<?xml version="1.0" encoding="UTF-8" standalone="no"?>
<!-- Created with Inkscape (http://www.inkscape.org/) -->

<svg
   width="64"
   height="64"
   viewBox="0 0 16.933333 16.933333"
   version="1.1"
   id="svg3928"
   inkscape:version="1.2.2 (b0a8486541, 2022-12-01)"
   sodipodi:docname="crate.svg"
   xmlns:inkscape="http://www.inkscape.org/namespaces/inkscape"
   xmlns:sodipodi="http://sodipodi.sourceforge.net/DTD/sodipodi-0.dtd"
   xmlns="http://www.w3.org/2000/svg"
   xmlns:svg="http://www.w3.org/2000/svg">
  <sodipodi:namedview
     id="namedview3930"
     pagecolor="#ffffff"
     bordercolor="#666666"
     borderopacity="1.0"
     inkscape:showpageshadow="2"
     inkscape:pageopacity="0.0"
     inkscape:pagecheckerboard="0"
     inkscape:deskcolor="#d1d1d1"
     inkscape:document-units="mm"
     showgrid="false"
     inkscape:zoom="5.955465"
     inkscape:cx="-20.065604"
     inkscape:cy="35.429643"
     inkscape:window-width="1880"
     inkscape:window-height="1052"
     inkscape:window-x="40"
     inkscape:window-y="0"
     inkscape:window-maximized="1"
     inkscape:current-layer="use2782" />
  <defs
     id="defs3925" />
  <g
     inkscape:label="Layer 1"
     inkscape:groupmode="layer"
     id="layer1">
    <g
       transform="matrix(0.26458333,0,0,0.26458333,-135.99583,-18.527448)"
       id="g2784">
      <g
         id="use2782">
        <path
           fill="#d9944e"
           stroke="none"
           d="m 572.75,70.3 q -0.9,-0.2 -1.95,-0.25 h -49.55 q -1.05,0.05 -1.95,0.25 -4.1,0.9 -5,5 -0.25,1.05 -0.3,2.3 v 48.85 q 0.05,1.25 0.3,2.3 0.9,4.05 5,5 1,0.2 2.15,0.25 h 49.15 q 1.2,-0.05 2.15,-0.25 4.05,-0.95 5,-5 0.2,-1.05 0.25,-2.3 V 77.6 q -0.05,-1.3 -0.25,-2.3 -0.1,-0.3 -0.15,-0.55 -0.4,-1.25 -1.1,-2.2 -1.3,-1.7 -3.75,-2.25 m -2.05,1.75 q 0.85,0.05 1.6,0.2 1.7,0.4 2.6,1.55 v -0.05 q 0.5,0.65 0.8,1.55 0.05,0.25 0.15,0.55 0.1,0.8 0.15,1.85 v 48.7 q -0.05,1.05 -0.2,2 v -0.1 q -0.65,2.85 -3.5,3.5 h 0.05 q -0.8,0.15 -1.75,0.2 h -49.05 q -1,-0.05 -1.85,-0.2 h 0.05 q -2.85,-0.65 -3.5,-3.45 v -0.05 q -0.2,-0.85 -0.25,-1.85 V 77.7 q 0.05,-1.05 0.25,-1.9 v -0.05 q 0.65,-2.85 3.5,-3.5 0.7,-0.15 1.5,-0.2 h 49.45 m -15.2,5.55 -29,18.45 v 6.35 h 10 l 29,-18.45 V 77.6 Z"
           id="path4708"
           style="fill:#d9d9d9;fill-opacity:1" />
        <path
           fill="#cd8c4a"
           stroke="none"
           d="m 572.3,72.25 q -0.75,-0.15 -1.6,-0.2 h -49.45 q -0.8,0.05 -1.5,0.2 -2.85,0.65 -3.5,3.5 v 0.05 q -0.2,0.85 -0.25,1.9 v 48.75 q 0.05,1 0.25,1.85 v 0.05 q 0.65,2.8 3.5,3.45 h -0.05 q 0.85,0.15 1.85,0.2 h 49.05 q 0.95,-0.05 1.75,-0.2 h -0.05 q 2.85,-0.65 3.5,-3.5 v 0.1 q 0.15,-0.95 0.2,-2 V 77.7 q -0.05,-1.05 -0.15,-1.85 -0.1,-0.3 -0.15,-0.55 -0.3,-0.9 -0.8,-1.55 V 73.8 Q 574,72.65 572.3,72.25 M 524,128 v -15 h 44 v 15 h -44 m 0,-52 h 44 v 28 h -44 z"
           id="path4710"
           style="fill:#999999;fill-opacity:1" />
        <path
           fill="#aa733c"
           stroke="none"
           d="m 568,76 h -44 v 28 h 44 V 76 m -41.5,20.05 29,-18.45 h 10 v 6.35 l -29,18.45 h -10 V 96.05 M 524,113 v 15 h 44 v -15 z"
           id="path4712"
           style="fill:#737373;fill-opacity:1" />
      </g>
    </g>
  </g>
</svg>
