<?xml version="1.0" encoding="UTF-8" standalone="no"?>
<!-- Created with Inkscape (http://www.inkscape.org/) -->

<svg
   width="64"
   height="64"
   viewBox="0 0 16.933333 16.933333"
   version="1.1"
   id="svg3928"
   inkscape:version="1.2.2 (b0a8486541, 2022-12-01)"
   sodipodi:docname="floor.svg"
   xmlns:inkscape="http://www.inkscape.org/namespaces/inkscape"
   xmlns:sodipodi="http://sodipodi.sourceforge.net/DTD/sodipodi-0.dtd"
   xmlns="http://www.w3.org/2000/svg"
   xmlns:svg="http://www.w3.org/2000/svg">
  <sodipodi:namedview
     id="namedview3930"
     pagecolor="#ffffff"
     bordercolor="#666666"
     borderopacity="1.0"
     inkscape:showpageshadow="2"
     inkscape:pageopacity="0.0"
     inkscape:pagecheckerboard="0"
     inkscape:deskcolor="#d1d1d1"
     inkscape:document-units="mm"
     showgrid="false"
     inkscape:zoom="5.955465"
     inkscape:cx="-20.065604"
     inkscape:cy="35.429643"
     inkscape:window-width="1880"
     inkscape:window-height="1052"
     inkscape:window-x="40"
     inkscape:window-y="0"
     inkscape:window-maximized="1"
     inkscape:current-layer="use3646" />
  <defs
     id="defs3925" />
  <g
     inkscape:label="Layer 1"
     inkscape:groupmode="layer"
     id="layer1">
    <g
       transform="matrix(0.26458333,0,0,0.26458333,-233.89166,-135.99583)"
       id="g3648">
      <g
         id="use3646">
        <path
           fill="#849ea1"
           stroke="none"
           d="m 944.7,564.2 q -0.6,0.45 -2.05,1.85 -1.35,1.45 -1.8,2 -0.75,1.05 -0.7,1.8 -0.05,0.8 0.7,1.8 0.45,0.6 1.8,2.05 1.45,1.4 2.05,1.8 1,0.75 1.8,0.7 0.65,0.05 1.5,-0.5 V 564 q -0.85,-0.5 -1.5,-0.5 -0.8,0 -1.8,0.7 m 3.3,-46.65 q -0.05,0 -0.05,0.05 -0.2,0.15 -0.3,0.35 -0.05,0.05 -0.1,0.1 -1.15,1.35 -1.2,2.45 -0.15,1.15 0.85,2.65 0.25,0.45 0.75,1.1 l 0.05,0.05 v -6.75 m -58.5,59.3 q -0.55,0.35 -1.5,1.15 h 7.4 q -0.45,-0.5 -0.75,-0.75 -1.4,-1.2 -2.5,-1.2 -1.15,-0.15 -2.65,0.8 m -1.35,-8.8 q -0.4,-0.55 -1.8,-2 -1.5,-1.4 -2.05,-1.85 -0.15,-0.1 -0.3,-0.2 v 11.75 q 0.15,-0.1 0.3,-0.25 0.55,-0.4 2.05,-1.8 1.4,-1.5 1.8,-2.05 0.75,-1 0.7,-1.8 0.05,-0.75 -0.7,-1.8 M 928.2,554.7 q -0.65,0.7 -1.15,1.25 -1,1.1 -1.45,1.7 -1.1,1.45 -1.05,2.55 -0.05,1.15 1.05,2.6 0.65,0.9 2.6,2.95 2.05,1.95 2.95,2.65 1.45,1.05 2.55,1 1.15,0.05 2.6,-1 0.85,-0.65 2.95,-2.65 2,-2.05 2.65,-2.95 1.05,-1.45 1,-2.6 0.05,-1.1 -1,-2.55 -0.45,-0.6 -1.45,-1.7 -0.55,-0.55 -1.2,-1.25 -2.1,-2 -2.95,-2.65 -1.45,-1.05 -2.6,-1 -1.1,-0.05 -2.55,1 -0.9,0.7 -2.95,2.65 m 0.7,-31.25 q -1.45,-1.4 -2.05,-1.8 -1,-0.75 -1.8,-0.75 -0.75,0 -1.75,0.75 -0.6,0.4 -2.05,1.8 -1.4,1.45 -1.85,2.05 -0.7,1 -0.7,1.75 0,0.8 0.7,1.8 0.45,0.6 1.85,2.05 1.45,1.4 2.05,1.85 1,0.7 1.75,0.7 0.8,0 1.8,-0.7 0.6,-0.45 2.05,-1.85 1.4,-1.45 1.8,-2.05 0.75,-1 0.7,-1.8 0.05,-0.75 -0.7,-1.75 -0.4,-0.55 -1.8,-2.05 M 888,514 q -0.7,0.5 -1.65,1.25 -1.6,1.45 -2.35,2.3 v 6.75 q 0.6,0.8 1.55,2 1.95,2.15 2.75,2.85 1.35,1.15 2.5,1.2 1.1,0.1 2.65,-0.85 0.95,-0.6 3.1,-2.4 2.15,-1.9 2.85,-2.75 1.15,-1.35 1.2,-2.5 0.15,-1.1 -0.8,-2.65 -0.3,-0.45 -0.85,-1.25 -0.65,-0.8 -1.55,-1.9 -1.2,-1.3 -2,-2.05 z"
           id="path4555"
           style="fill:#bfbfbf;fill-opacity:1" />
        <path
           fill="#7d9598"
           stroke="none"
           d="m 931.1,576.45 q -0.85,0.85 -1.45,1.55 h 13.95 q -0.65,-0.7 -1.45,-1.55 -2.1,-2 -2.95,-2.6 -1.45,-1.05 -2.6,-1.05 -1.1,0 -2.55,1.05 -0.9,0.65 -2.95,2.6 m -14.85,-9.9 q -2.05,-1.5 -3.65,-1.45 -1.55,-0.05 -3.6,1.45 -1.2,0.9 -4.15,3.7 -2.8,2.95 -3.7,4.2 -1.5,2 -1.45,3.55 h 25.85 q 0.05,-1.55 -1.45,-3.55 -0.9,-1.25 -3.7,-4.2 -2.95,-2.8 -4.15,-3.7 m 7.65,-48.6 q 0.1,-0.15 0.2,-0.3 1.5,-2.05 1.45,-3.65 H 899.7 q -0.05,1.6 1.45,3.65 0.1,0.15 0.25,0.3 0.95,1.25 3.45,3.85 2.95,2.8 4.15,3.7 2.05,1.5 3.6,1.45 1.6,0.05 3.65,-1.45 1.2,-0.9 4.15,-3.7 2.5,-2.6 3.5,-3.85 m 24.1,9.6 h -0.05 q -2.05,-1.55 -3.7,-1.5 -1.65,-0.05 -3.75,1.5 -1.3,0.95 -4.35,3.85 -2.9,3.05 -3.85,4.35 -1.55,2.15 -1.5,3.8 -0.05,1.65 1.5,3.75 0.95,1.3 3.85,4.35 3.05,2.9 4.35,3.85 2.1,1.55 3.75,1.5 1.65,0.05 3.75,-1.45 v -24 m -2.2,-9.6 q 0,-1.15 -1.05,-2.55 -0.35,-0.5 -1.2,-1.4 H 929.7 q -0.85,0.9 -1.25,1.4 -1.05,1.4 -1,2.55 V 518 q -0.05,1.1 1,2.55 0.65,0.9 2.65,2.95 2.05,2 2.95,2.65 1.45,1.05 2.55,1 1.15,0.05 2.6,-1 0.85,-0.65 2.95,-2.65 1.95,-2.05 2.6,-2.95 1.05,-1.45 1.05,-2.55 v -0.05 m -57.45,13.45 q -3.1,-2.95 -4.3,-3.85 H 884 v 24 l 0.05,-0.05 q 1.2,-0.9 4.3,-3.85 2.9,-3.05 3.85,-4.35 1.55,-2.1 1.5,-3.75 0.05,-1.65 -1.5,-3.8 -0.95,-1.3 -3.85,-4.35 m 20.1,5.65 q -3.1,2.85 -4.1,4.1 -1.7,2.05 -1.75,3.7 -0.15,1.6 1.3,3.85 0.85,1.3 3.6,4.55 1.5,1.65 2.6,2.7 0.9,0.95 1.5,1.4 2.05,1.65 3.65,1.7 1.65,0.15 3.9,-1.25 0.8,-0.55 2.45,-1.85 0.9,-0.75 2.1,-1.75 3.05,-2.85 4.1,-4.1 1.7,-2.05 1.75,-3.7 0.15,-1.65 -1.3,-3.85 -0.85,-1.3 -3.6,-4.55 -2.85,-3.1 -4.1,-4.1 -2.05,-1.7 -3.7,-1.75 -1.65,-0.15 -3.85,1.3 -1.35,0.85 -4.55,3.6 M 903,528.7 q -0.9,-0.9 -1.65,-1 -0.75,-0.1 -1.85,0.45 -0.65,0.35 -2.3,1.5 -1.55,1.25 -2.1,1.8 -0.85,0.9 -0.95,1.65 -0.15,0.75 0.45,1.85 0.35,0.65 1.5,2.3 1.2,1.6 1.75,2.1 0.9,0.9 1.65,0.95 0.8,0.15 1.85,-0.45 0.7,-0.35 2.3,-1.5 1.6,-1.25 2.1,-1.75 0.9,-0.9 0.95,-1.65 0.15,-0.8 -0.4,-1.85 -0.35,-0.65 -1.5,-2.3 -1.25,-1.6 -1.8,-2.1 m -13.75,27.25 -0.05,0.05 q -0.9,1.55 -0.75,2.65 0.05,1.1 1.3,2.45 0.7,0.8 2.9,2.65 2.3,1.75 3.25,2.25 1.55,0.9 2.65,0.75 1.15,-0.1 2.45,-1.3 0.8,-0.75 2.65,-2.95 1.75,-2.25 2.3,-3.2 0.9,-1.55 0.7,-2.7 0,-0.3 -0.1,-0.65 -0.3,-0.85 -1.2,-1.8 -0.75,-0.8 -2.9,-2.6 -2.3,-1.75 -3.25,-2.3 -1.55,-0.9 -2.65,-0.75 -1.15,0.1 -2.45,1.3 -0.8,0.75 -2.65,2.95 -1.7,2.25 -2.2,3.2 z"
           id="path4557"
           style="fill:#cccccc;fill-opacity:1" />
        <path
           fill="#758c8e"
           stroke="none"
           d="m 884.05,527.55 q 1.2,0.9 4.3,3.85 2.9,3.05 3.85,4.35 1.55,2.15 1.5,3.8 0.05,1.65 -1.5,3.75 -0.95,1.3 -3.85,4.35 -3.1,2.95 -4.3,3.85 L 884,551.55 V 564 q 0.15,0.1 0.3,0.2 0.55,0.45 2.05,1.85 1.4,1.45 1.8,2 0.75,1.05 0.7,1.8 0.05,0.8 -0.7,1.8 -0.4,0.55 -1.8,2.05 -1.5,1.4 -2.05,1.8 -0.15,0.15 -0.3,0.25 V 578 h 4 q 0.95,-0.8 1.5,-1.15 1.5,-0.95 2.65,-0.8 1.1,0 2.5,1.2 0.3,0.25 0.75,0.75 h 4.3 q -0.05,-1.55 1.45,-3.55 0.9,-1.25 3.7,-4.2 2.95,-2.8 4.15,-3.7 2.05,-1.5 3.6,-1.45 1.6,-0.05 3.65,1.45 1.2,0.9 4.15,3.7 2.8,2.95 3.7,4.2 1.5,2 1.45,3.55 h 4.1 q 0.6,-0.7 1.45,-1.55 2.05,-1.95 2.95,-2.6 1.45,-1.05 2.55,-1.05 1.15,0 2.6,1.05 0.85,0.6 2.95,2.6 0.8,0.85 1.45,1.55 h 4.4 v -2.3 q -0.85,0.55 -1.5,0.5 -0.8,0.05 -1.8,-0.7 -0.6,-0.4 -2.05,-1.8 -1.35,-1.45 -1.8,-2.05 -0.75,-1 -0.7,-1.8 -0.05,-0.75 0.7,-1.8 0.45,-0.55 1.8,-2 1.45,-1.4 2.05,-1.85 1,-0.7 1.8,-0.7 0.65,0 1.5,0.5 v -12.45 q -2.1,1.5 -3.75,1.45 -1.65,0.05 -3.75,-1.5 -1.3,-0.95 -4.35,-3.85 -2.9,-3.05 -3.85,-4.35 -1.55,-2.1 -1.5,-3.75 -0.05,-1.65 1.5,-3.8 0.95,-1.3 3.85,-4.35 3.05,-2.9 4.35,-3.85 2.1,-1.55 3.75,-1.5 1.65,-0.05 3.7,1.5 H 948 v -3.25 l -0.05,-0.05 q -0.5,-0.65 -0.75,-1.1 -1,-1.5 -0.85,-2.65 0.05,-1.1 1.2,-2.45 0.05,-0.05 0.1,-0.1 0.1,-0.2 0.3,-0.35 0,-0.05 0.05,-0.05 V 514 h -4.45 q 0.85,0.9 1.2,1.4 1.05,1.4 1.05,2.55 V 518 q 0,1.1 -1.05,2.55 -0.65,0.9 -2.6,2.95 -2.1,2 -2.95,2.65 -1.45,1.05 -2.6,1 -1.1,0.05 -2.55,-1 -0.9,-0.65 -2.95,-2.65 -2,-2.05 -2.65,-2.95 -1.05,-1.45 -1,-2.55 v -0.05 q -0.05,-1.15 1,-2.55 0.4,-0.5 1.25,-1.4 h -4.15 q 0.05,1.6 -1.45,3.65 -0.1,0.15 -0.2,0.3 -1,1.25 -3.5,3.85 -2.95,2.8 -4.15,3.7 -2.05,1.5 -3.65,1.45 -1.55,0.05 -3.6,-1.45 -1.2,-0.9 -4.15,-3.7 -2.5,-2.6 -3.45,-3.85 -0.15,-0.15 -0.25,-0.3 -1.5,-2.05 -1.45,-3.65 h -4.3 q 0.8,0.75 2,2.05 0.9,1.1 1.55,1.9 0.55,0.8 0.85,1.25 0.95,1.55 0.8,2.65 -0.05,1.15 -1.2,2.5 -0.7,0.85 -2.85,2.75 -2.15,1.8 -3.1,2.4 -1.55,0.95 -2.65,0.85 -1.15,-0.05 -2.5,-1.2 -0.8,-0.7 -2.75,-2.85 -0.95,-1.2 -1.55,-2 v 3.25 h 0.05 m 5.15,28.45 0.05,-0.05 q 0.5,-0.95 2.2,-3.2 1.85,-2.2 2.65,-2.95 1.3,-1.2 2.45,-1.3 1.1,-0.15 2.65,0.75 0.95,0.55 3.25,2.3 2.15,1.8 2.9,2.6 0.9,0.95 1.2,1.8 0.1,0.35 0.1,0.65 0.2,1.15 -0.7,2.7 -0.55,0.95 -2.3,3.2 -1.85,2.2 -2.65,2.95 -1.3,1.2 -2.45,1.3 -1.1,0.15 -2.65,-0.75 -0.95,-0.5 -3.25,-2.25 -2.2,-1.85 -2.9,-2.65 -1.25,-1.35 -1.3,-2.45 -0.15,-1.1 0.75,-2.65 m 12.15,-28.3 q 0.75,0.1 1.65,1 0.55,0.5 1.8,2.1 1.15,1.65 1.5,2.3 0.55,1.05 0.4,1.85 -0.05,0.75 -0.95,1.65 -0.5,0.5 -2.1,1.75 -1.6,1.15 -2.3,1.5 -1.05,0.6 -1.85,0.45 -0.75,-0.05 -1.65,-0.95 -0.55,-0.5 -1.75,-2.1 -1.15,-1.65 -1.5,-2.3 -0.6,-1.1 -0.45,-1.85 0.1,-0.75 0.95,-1.65 0.55,-0.55 2.1,-1.8 1.65,-1.15 2.3,-1.5 1.1,-0.55 1.85,-0.45 m 3,13.45 q 1,-1.25 4.1,-4.1 3.2,-2.75 4.55,-3.6 2.2,-1.45 3.85,-1.3 1.65,0.05 3.7,1.75 1.25,1 4.1,4.1 2.75,3.25 3.6,4.55 1.45,2.2 1.3,3.85 -0.05,1.65 -1.75,3.7 -1.05,1.25 -4.1,4.1 -1.2,1 -2.1,1.75 -1.65,1.3 -2.45,1.85 -2.25,1.4 -3.9,1.25 -1.6,-0.05 -3.65,-1.7 -0.6,-0.45 -1.5,-1.4 -1.1,-1.05 -2.6,-2.7 -2.75,-3.25 -3.6,-4.55 -1.45,-2.25 -1.3,-3.85 0.05,-1.65 1.75,-3.7 m 22.5,-19.5 q 0.6,0.4 2.05,1.8 1.4,1.5 1.8,2.05 0.75,1 0.7,1.75 0.05,0.8 -0.7,1.8 -0.4,0.6 -1.8,2.05 -1.45,1.4 -2.05,1.85 -1,0.7 -1.8,0.7 -0.75,0 -1.75,-0.7 -0.6,-0.45 -2.05,-1.85 -1.4,-1.45 -1.85,-2.05 -0.7,-1 -0.7,-1.8 0,-0.75 0.7,-1.75 0.45,-0.6 1.85,-2.05 1.45,-1.4 2.05,-1.8 1,-0.75 1.75,-0.75 0.8,0 1.8,0.75 m 0.2,34.3 q 0.5,-0.55 1.15,-1.25 2.05,-1.95 2.95,-2.65 1.45,-1.05 2.55,-1 1.15,-0.05 2.6,1 0.85,0.65 2.95,2.65 0.65,0.7 1.2,1.25 1,1.1 1.45,1.7 1.05,1.45 1,2.55 0.05,1.15 -1,2.6 -0.65,0.9 -2.65,2.95 -2.1,2 -2.95,2.65 -1.45,1.05 -2.6,1 -1.1,0.05 -2.55,-1 -0.9,-0.7 -2.95,-2.65 -1.95,-2.05 -2.6,-2.95 -1.1,-1.45 -1.05,-2.6 -0.05,-1.1 1.05,-2.55 0.45,-0.6 1.45,-1.7 M 884,514 v 3.55 q 0.75,-0.85 2.35,-2.3 0.95,-0.75 1.65,-1.25 z"
           id="path4559"
           style="fill:#e5e5e5;fill-opacity:1" />
      </g>
    </g>
  </g>
</svg>
