<?xml version="1.0" encoding="UTF-8" standalone="no"?>
<!-- Created with Inkscape (http://www.inkscape.org/) -->

<svg
   width="64"
   height="64"
   viewBox="0 0 16.933333 16.933333"
   version="1.1"
   id="svg3928"
   inkscape:version="1.2.2 (b0a8486541, 2022-12-01)"
   sodipodi:docname="player_right.svg"
   xmlns:inkscape="http://www.inkscape.org/namespaces/inkscape"
   xmlns:sodipodi="http://sodipodi.sourceforge.net/DTD/sodipodi-0.dtd"
   xmlns="http://www.w3.org/2000/svg"
   xmlns:svg="http://www.w3.org/2000/svg">
  <sodipodi:namedview
     id="namedview3930"
     pagecolor="#ffffff"
     bordercolor="#666666"
     borderopacity="1.0"
     inkscape:showpageshadow="2"
     inkscape:pageopacity="0.0"
     inkscape:pagecheckerboard="0"
     inkscape:deskcolor="#d1d1d1"
     inkscape:document-units="mm"
     showgrid="false"
     inkscape:zoom="5.955465"
     inkscape:cx="10.242693"
     inkscape:cy="35.429643"
     inkscape:window-width="1880"
     inkscape:window-height="1052"
     inkscape:window-x="40"
     inkscape:window-y="0"
     inkscape:window-maximized="1"
     inkscape:current-layer="layer1" />
  <defs
     id="defs3925" />
  <g
     inkscape:label="Layer 1"
     inkscape:groupmode="layer"
     id="layer1">
    <g
       id="g5408"
       transform="translate(21.750334,-5.3056998)">
      <g
         transform="matrix(0.26458333,0,0,0.26458333,-40.271906,-130.69119)"
         id="g3388">
        <g
           id="use3386">
          <path
             fill="#e74c3c"
             stroke="none"
             d="m 115.3,563.6 q 0,-0.15 0.05,-0.35 0.05,-0.45 0.15,-0.95 v -0.05 q 0.1,-1.7 0,-3.2 -11.85,0 -15.05,-7.65 h -15 q -3.65,3.55 -3.1,10.9 0.05,0.65 0.2,1.3 0.05,0.45 0.15,0.75 0.15,0.55 0.4,0.95 1,1.65 3.5,1.65 h 24.5 q 3.4,0 4.1,-2.95 0.05,-0.2 0.1,-0.4 z"
             id="path5334" />
          <path
             fill="#2ecc71"
             stroke="none"
             d="m 115.5,559.05 q -0.35,-5.1 -3.2,-7.65 h -11.85 q 3.2,7.65 15.05,7.65 z"
             id="path5336" />
        </g>
      </g>
      <g
         transform="matrix(0.26458333,0,0,0.26458333,-40.271906,-130.69119)"
         id="g3392">
        <g
           id="use3390">
          <path
             fill="#333333"
             stroke="none"
             d="m 104.05,568 q 0,-2.1 -1.8,-3.55 -1.8,-1.5 -4.35,-1.5 -2.55,0 -4.35,1.5 -1.85,1.45 -1.85,3.55 0,0.15 0.05,0.2 0,0.15 0,0.25 0.1,0.9 1.55,1.65 0.1,0.05 0.25,0.1 0.5,0.2 1.05,0.4 1.5,0.4 3.3,0.4 1.85,0 3.25,-0.4 0.55,-0.2 1.1,-0.4 0.85,-0.5 1.35,-0.95 0.35,-0.4 0.45,-0.8 0,-0.1 0,-0.25 0,-0.05 0,-0.2 z"
             id="path5330" />
        </g>
      </g>
      <g
         transform="matrix(0.26458333,0,0,0.26458333,-40.271906,-130.69119)"
         id="g3396">
        <g
           id="use3394">
          <path
             fill="#2ecc71"
             stroke="none"
             d="m 97.35,554.15 q -1.45,-1.5 -3.45,-1.7 -1,-0.1 -1.7,0.1 -1.2,0.3 -2.3,1.2 -0.3,0.25 -0.55,0.55 -1.45,1.95 -1.15,4.95 0.65,3.4 1.65,3.05 1.1,-0.45 3.3,-0.55 2.15,-0.1 3.75,0.2 1.6,0.3 1.75,-1.2 0,-0.35 0.05,-0.65 0.1,-3.95 -1.35,-5.95 z"
             id="path5326" />
        </g>
      </g>
      <g
         transform="matrix(0.26458333,0,0,0.26458333,-40.271906,-130.69119)"
         id="g3400">
        <g
           id="use3398">
          <path
             fill="#ffe0b1"
             stroke="none"
             d="m 88.4,560.65 q -0.5,1.85 0.35,3.6 0.15,0.2 0.3,0.5 0.05,0.15 0.15,0.2 0.7,1.15 2.45,1.1 1.85,0.05 3.8,-1.15 1.95,-1.05 2.9,-2.75 0.85,-1.55 0.25,-2.6 0,-0.1 -0.05,-0.1 -0.05,-0.1 0,-0.15 -0.25,-0.25 -0.4,-0.5 -1.05,-1.65 -2.85,-2.1 -2.4,-0.65 -4.35,0.5 -0.9,0.55 -1.35,1.15 -0.8,0.95 -1.2,2.3 z"
             id="path5322" />
        </g>
      </g>
      <g
         transform="matrix(0.26458333,0,0,0.26458333,-40.271906,-130.69119)"
         id="g3404">
        <g
           id="use3402">
          <path
             fill="#ffe0b1"
             stroke="none"
             d="m 113.4,530.9 q -1.05,-1.1 -3.1,-1.1 H 96.4 q 1.7,18.7 -14.7,20.8 0.05,0.4 0.15,0.7 0.15,0.65 0.4,1.1 1,1.8 3.5,1.8 h 24.55 q 3.45,0 4.15,-3.25 0.05,-0.25 0.1,-0.45 0,-0.2 0.05,-0.4 0.4,-3.1 0.5,-6.35 0,-0.3 0,-0.6 0.05,-1.9 -0.05,-3.8 -0.2,-2.9 -0.55,-5.85 -0.25,-1.65 -1.1,-2.6 z"
             id="path5316" />
          <path
             fill="#694c39"
             stroke="none"
             d="M 96.4,529.8 H 85.75 q -1.9,0 -2.95,1.1 -0.9,0.95 -1.1,2.7 -0.5,3.2 -0.65,6.4 -0.05,1.55 0,3.15 0.05,3.7 0.65,7.35 0,0.05 0,0.1 16.4,-2.1 14.7,-20.8 z"
             id="path5318" />
        </g>
      </g>
      <g
         transform="matrix(0.26458333,0,0,0.26458333,-40.271906,-130.69119)"
         id="g3408">
        <g
           id="use3406">
          <path
             fill="#694c39"
             stroke="none"
             d="m 106.05,543.85 q 0,-1.3 -0.6,-2.1 -0.55,-0.9 -1.4,-0.9 -0.8,0 -1.4,0.9 -0.6,0.8 -0.6,2.1 0,1.35 0.6,2.15 0.6,0.9 1.4,0.9 0.85,0 1.4,-0.9 0.6,-0.8 0.6,-2.15 z"
             id="path5312" />
        </g>
      </g>
      <g
         transform="matrix(0.26458333,0,0,0.26458333,-40.271906,-130.69119)"
         id="g3412">
        <g
           id="use3410">
          <path
             fill="#ffe0b1"
             stroke="none"
             d="m 112.05,547.8 q 0,0.45 0.9,0.8 0.9,0.3 2.15,0.3 1.2,0 2.15,-0.3 0.85,-0.35 0.85,-0.8 0,-1.15 -0.85,-2 -0.95,-0.9 -2.15,-0.9 -1.25,0 -2.15,0.9 -0.8,0.85 -0.9,2 z"
             id="path5308" />
        </g>
      </g>
      <g
         transform="matrix(0.26458333,0,0,0.26458333,-40.271906,-130.69119)"
         id="g3416">
        <g
           id="use3414">
          <path
             fill="#694c39"
             stroke="none"
             d="m 112.65,546.95 q -0.3,-0.05 -0.6,-0.05 -2.85,0 -4.95,1.3 -1.85,1.25 -2.05,3 0,0.75 2.05,1.2 2.1,0.5 4.95,0.5 0.3,0 0.6,0 1.15,-0.05 2,-0.5 0.9,-0.45 0.9,-1.2 0,-1.75 -0.9,-3 -0.85,-1.15 -2,-1.25 z"
             id="path5304" />
        </g>
      </g>
      <g
         transform="matrix(0.26458333,0,0,0.26458333,-40.271906,-130.69119)"
         id="g3420">
        <g
           id="use3418">
          <path
             fill="#2ecc71"
             stroke="none"
             d="m 116,532.5 q -4.1,0.05 -7.9,0.3 -15.9,1.05 -27.9,4.65 0.1,2.45 3.4,2.25 l 37.35,-2.1 q 3.2,-0.15 3.05,-2.6 -4,-2.5 -8,-2.5 z"
             id="path5296" />
          <path
             fill="#ffffff"
             stroke="none"
             d="m 115.7,526.5 q -3.3,0.15 -5.55,2.2 -1.9,1.75 -2.05,4.1 3.8,-0.25 7.9,-0.3 z"
             id="path5298" />
          <path
             fill="#28b162"
             stroke="none"
             d="m 80.05,535.3 0.15,2.15 q 12,-3.6 27.9,-4.65 0.15,-2.35 2.05,-4.1 2.25,-2.05 5.55,-2.2 l -0.05,-0.8 h -0.05 q -0.8,-3.95 -5.5,-4.3 -7.25,-0.7 -14.3,-0.15 -16.7,2.2 -15.75,13.85 0,0.1 0,0.2 z"
             id="path5300" />
        </g>
      </g>
      <g
         transform="matrix(0.26458333,0,0,0.26458333,-40.271906,-130.69119)"
         id="g3424">
        <g
           id="use3422">
          <path
             fill="#ffe0b1"
             stroke="none"
             d="m 91.5,541.85 q -1.8,0 -3.1,1.1 -1.3,1.2 -1.3,2.85 v 0.15 q 0,1.65 1.3,2.7 1.3,1.25 3.1,1.25 1.85,0 3.2,-1.25 1.3,-1.1 1.3,-2.7 0,-1.8 -1.3,-3 -1.35,-1.1 -3.2,-1.1 z"
             id="path5292" />
        </g>
      </g>
    </g>
  </g>
</svg>
