<?xml version="1.0" encoding="UTF-8" standalone="no"?>
<!-- Created with Inkscape (http://www.inkscape.org/) -->

<svg
   width="64"
   height="64"
   viewBox="0 0 16.933333 16.933333"
   version="1.1"
   id="svg3928"
   inkscape:version="1.2.2 (b0a8486541, 2022-12-01)"
   sodipodi:docname="player.svg"
   xmlns:inkscape="http://www.inkscape.org/namespaces/inkscape"
   xmlns:sodipodi="http://sodipodi.sourceforge.net/DTD/sodipodi-0.dtd"
   xmlns="http://www.w3.org/2000/svg"
   xmlns:svg="http://www.w3.org/2000/svg">
  <sodipodi:namedview
     id="namedview3930"
     pagecolor="#ffffff"
     bordercolor="#666666"
     borderopacity="1.0"
     inkscape:showpageshadow="2"
     inkscape:pageopacity="0.0"
     inkscape:pagecheckerboard="0"
     inkscape:deskcolor="#d1d1d1"
     inkscape:document-units="mm"
     showgrid="false"
     inkscape:zoom="5.955465"
     inkscape:cx="10.242693"
     inkscape:cy="35.429643"
     inkscape:window-width="1880"
     inkscape:window-height="1052"
     inkscape:window-x="40"
     inkscape:window-y="0"
     inkscape:window-maximized="1"
     inkscape:current-layer="layer1" />
  <defs
     id="defs3925" />
  <g
     inkscape:label="Layer 1"
     inkscape:groupmode="layer"
     id="layer1">
    <g
       id="g4446"
       transform="translate(26.281886,-5.4389788)">
      <g
         transform="matrix(0.26458333,0,0,0.26458333,-44.802719,-91.400152)"
         id="g3220">
        <g
           id="use3218">
          <path
             fill="#333333"
             stroke="none"
             d="m 98.35,420.05 q 0,-2.1 -1.85,-3.55 -1.75,-1.5 -4.3,-1.5 -2.55,0 -4.4,1.5 -1.8,1.45 -1.8,3.55 0,0.15 0.05,0.2 0,0.15 0,0.25 0.1,0.9 1.55,1.6 0.1,0.05 0.2,0.1 0.5,0.2 1.1,0.4 1.5,0.4 3.3,0.4 1.8,0 3.25,-0.4 0.55,-0.2 1.05,-0.4 0.9,-0.45 1.4,-0.9 0.35,-0.4 0.45,-0.8 0,-0.1 0,-0.25 0,-0.05 0,-0.2 z"
             id="path4352" />
        </g>
      </g>
      <g
         transform="matrix(0.26458333,0,0,0.26458333,-44.802719,-91.400152)"
         id="g3224">
        <g
           id="use3222">
          <path
             fill="#333333"
             stroke="none"
             d="m 107.5,416.5 q -1.85,1.45 -1.85,3.55 0,0.15 0.05,0.2 0,0.15 0,0.25 0.1,0.9 1.55,1.6 0.1,0.05 0.25,0.1 0.5,0.2 1.05,0.4 1.5,0.4 3.3,0.4 1.85,0 3.25,-0.4 0.55,-0.2 1.1,-0.4 0.85,-0.45 1.35,-0.9 0.35,-0.4 0.45,-0.8 0,-0.1 0,-0.25 0,-0.05 0,-0.2 0,-2.1 -1.8,-3.55 -1.8,-1.5 -4.35,-1.5 -2.55,0 -4.35,1.5 z"
             id="path4348" />
        </g>
      </g>
      <g
         transform="matrix(0.26458333,0,0,0.26458333,-44.802719,-91.400152)"
         id="g3228">
        <g
           id="use3226">
          <path
             fill="#e74c3c"
             stroke="none"
             d="m 107.3,414.35 q 0.2,0.25 0.45,0.55 1.4,1.9 2,4.1 h 4.5 q 3.4,0 4.1,-2.95 0.05,-0.2 0.1,-0.4 0,-0.15 0.05,-0.35 0.05,-0.45 0.15,-0.95 v -0.05 q 0.5,-7.55 -3.2,-10.85 H 88.6 q -3.65,3.55 -3.1,10.9 0.05,0.65 0.2,1.3 0.05,0.45 0.15,0.75 0.15,0.55 0.4,0.95 1,1.65 3.5,1.65 h 4.5 q 0.55,-2.2 2,-4.1 0.25,-0.3 0.5,-0.55 2.2,-2.4 5.25,-2.4 3.05,0 5.3,2.4 z"
             id="path4342" />
          <path
             fill="#cd4335"
             stroke="none"
             d="m 107.75,414.9 q -0.25,-0.3 -0.45,-0.55 -2.25,-2.4 -5.3,-2.4 -3.05,0 -5.25,2.4 -0.25,0.25 -0.5,0.55 -1.45,1.9 -2,4.1 h 1.55 q 0.2,-0.15 0.45,-0.35 2.35,-1.4 5.75,-1.4 3.4,0 5.75,1.4 0.2,0.2 0.45,0.35 h 1.55 q -0.6,-2.2 -2,-4.1 z"
             id="path4344" />
        </g>
      </g>
      <g
         transform="matrix(0.26458333,0,0,0.26458333,-44.802719,-91.400152)"
         id="g3232">
        <g
           id="use3230">
          <path
             fill="#d7bd93"
             stroke="none"
             d="m 118.55,393 q -1.85,0 -3.15,1.1 -1.25,1.2 -1.3,2.8 v 0.15 q 0.05,1.65 1.3,2.7 1.3,1.25 3.15,1.25 1.85,0 3.15,-1.25 1.3,-1.1 1.3,-2.7 0,-1.75 -1.3,-2.95 -1.3,-1.1 -3.15,-1.1 m -33.15,0 q -1.8,0 -3.1,1.1 -1.3,1.2 -1.3,2.8 v 0.15 q 0,1.65 1.3,2.7 1.3,1.25 3.1,1.25 1.85,0 3.15,-1.25 1.3,-1.1 1.3,-2.7 0,-1.75 -1.3,-2.95 -1.3,-1.1 -3.15,-1.1 z"
             id="path4338" />
        </g>
      </g>
      <g
         transform="matrix(0.26458333,0,0,0.26458333,-44.802719,-91.400152)"
         id="g3236">
        <g
           id="use3234">
          <path
             fill="#2ecc71"
             stroke="none"
             d="m 107.75,408.45 q 1.4,-0.95 2,-2.15 h -15.5 q 0.55,1.2 2,2.15 2.35,1.55 5.75,1.55 3.4,0 5.75,-1.55 z"
             id="path4330" />
          <path
             fill="#694c39"
             stroke="none"
             d="m 114.35,383.1 q 0.65,8 4.65,12.2 0.05,-1.9 -0.05,-3.8 -0.2,-2.9 -0.55,-5.85 -0.25,-1.6 -1.1,-2.55 -1.05,-1.1 -3.05,-1.1 0.05,0.6 0.1,1.1 m -29.3,12.2 q 4.75,-3.85 4.75,-12.2 -0.05,-0.5 -0.05,-1.1 -1.9,0 -2.95,1.1 -0.9,0.95 -1.1,2.65 -0.5,3.2 -0.65,6.4 -0.05,1.55 0,3.15 z"
             id="path4332" />
          <path
             fill="#ffe0b1"
             stroke="none"
             d="m 89.8,383.1 q 0,8.35 -4.75,12.2 0.05,3.65 0.65,7.3 0.05,0.45 0.15,0.8 0.15,0.65 0.4,1.1 1,1.8 3.5,1.8 h 4.5 15.5 4.5 q 3.4,0 4.1,-3.25 0.05,-0.25 0.1,-0.45 0,-0.2 0.05,-0.4 0.4,-3.1 0.5,-6.3 0,-0.3 0,-0.6 -4,-4.2 -4.65,-12.2 -0.05,-0.5 -0.1,-1.1 h -24.5 q 0,0.6 0.05,1.1 z"
             id="path4334" />
        </g>
      </g>
      <g
         transform="matrix(0.26458333,0,0,0.26458333,-44.802719,-91.400152)"
         id="g3240">
        <g
           id="use3238">
          <path
             fill="#694c39"
             stroke="none"
             d="m 111,393 q -0.8,0 -1.4,0.9 -0.6,0.8 -0.6,2.1 0,1.3 0.6,2.1 0.6,0.9 1.4,0.9 0.9,0 1.4,-0.9 0.6,-0.8 0.6,-2.1 0,-1.3 -0.6,-2.1 -0.5,-0.9 -1.4,-0.9 z"
             id="path4326" />
        </g>
      </g>
      <g
         transform="matrix(0.26458333,0,0,0.26458333,-44.802719,-91.400152)"
         id="g3244">
        <g
           id="use3242">
          <path
             fill="#694c39"
             stroke="none"
             d="m 93,393 q -0.8,0 -1.4,0.9 -0.6,0.8 -0.6,2.1 0,1.3 0.6,2.1 0.6,0.9 1.4,0.9 0.85,0 1.4,-0.9 0.6,-0.8 0.6,-2.1 0,-1.3 -0.6,-2.1 Q 93.85,393 93,393 Z"
             id="path4322" />
        </g>
      </g>
      <g
         transform="matrix(0.26458333,0,0,0.26458333,-44.802719,-91.400152)"
         id="g3248">
        <g
           id="use3246">
          <path
             fill="#694c39"
             stroke="none"
             d="m 95,403.3 q 0,0.75 2.05,1.2 2.1,0.5 4.95,0.5 2.9,0 5,-0.5 2,-0.45 2,-1.2 0,-1.75 -2,-3 -2.1,-1.3 -5,-1.3 -2.85,0 -4.95,1.3 -1.85,1.25 -2.05,3 z"
             id="path4318" />
        </g>
      </g>
      <g
         transform="matrix(0.26458333,0,0,0.26458333,-44.802719,-91.400152)"
         id="g3252">
        <g
           id="use3250">
          <path
             fill="#2ecc71"
             stroke="none"
             d="M 84,388.55 Q 83.95,391 86.65,391 h 30.7 q 2.65,0 2.65,-2.45 v -2.35 q -17.75,-2.05 -36,0 z"
             id="path4312" />
          <path
             fill="#28b162"
             stroke="none"
             d="m 84,378.6 v 7.6 q 18.25,-2.05 36,0 v -7.6 h -0.05 q -0.55,-3.95 -5.3,-4.6 -12.65,-1.95 -25.25,-0.05 -4.85,0.7 -5.35,4.65 z"
             id="path4314" />
        </g>
      </g>
      <g
         transform="matrix(0.26458333,0,0,0.26458333,-44.802719,-91.400152)"
         id="g3256">
        <g
           id="use3254">
          <path
             fill="#d7bd93"
             stroke="none"
             d="m 99,399.9 q 0,0.45 0.9,0.8 0.9,0.3 2.15,0.3 1.2,0 2.1,-0.3 0.85,-0.35 0.85,-0.8 0,-1.15 -0.85,-2 -0.9,-0.9 -2.1,-0.9 -1.25,0 -2.15,0.9 -0.8,0.85 -0.9,2 z"
             id="path4308" />
        </g>
      </g>
      <g
         transform="matrix(0.26458333,0,0,0.26458333,-44.802719,-91.400152)"
         id="g3260">
        <g
           id="use3258">
          <path
             fill="#ffe0b1"
             stroke="none"
             d="m 91,409.3 q -0.05,-0.05 -0.1,-0.05 -0.05,-0.05 -0.1,-0.1 -0.3,-0.15 -0.55,-0.25 -1.75,-0.85 -3.55,-0.35 -2.35,0.65 -3.5,2.6 -0.5,0.85 -0.6,1.65 -0.2,1.2 0.15,2.55 0.5,1.85 2.05,2.95 0.25,0.15 0.55,0.3 0.1,0.1 0.2,0.15 1.15,0.6 2.65,-0.3 1.65,-0.9 2.75,-2.9 1.15,-1.9 1.15,-3.85 -0.05,-1.75 -1.1,-2.4 z"
             id="path4302" />
          <path
             fill="#2ecc71"
             stroke="none"
             d="m 86.45,405 q -1.6,0.3 -2.7,1.45 -1.75,1.7 -1.75,3.95 0,1.3 0.6,2.4 0.1,-0.8 0.6,-1.65 1.15,-1.95 3.5,-2.6 1.8,-0.5 3.55,0.35 0.25,0.1 0.55,0.25 -4.05,-2.8 -4.35,-4.15 z"
             id="path4304" />
        </g>
      </g>
      <g
         transform="matrix(0.26458333,0,0,0.26458333,-44.802719,-91.400152)"
         id="g3264">
        <g
           id="use3262">
          <path
             fill="#ffe0b1"
             stroke="none"
             d="m 121.4,412.8 q -0.15,-0.8 -0.6,-1.65 -1.15,-1.95 -3.5,-2.6 -1.8,-0.5 -3.55,0.35 -0.25,0.1 -0.55,0.25 -0.05,0.05 -0.1,0.1 -0.05,0 -0.1,0.05 -1.05,0.65 -1.1,2.4 0,1.95 1.15,3.85 1.1,2 2.75,2.9 1.5,0.9 2.65,0.3 0.1,-0.05 0.2,-0.15 0.3,-0.15 0.55,-0.3 1.55,-1.1 2.05,-2.95 0.35,-1.35 0.15,-2.55 z"
             id="path4296" />
          <path
             fill="#2ecc71"
             stroke="none"
             d="m 120.25,406.45 q -1.1,-1.15 -2.7,-1.45 -0.3,1.35 -4.35,4.15 0.3,-0.15 0.55,-0.25 1.75,-0.85 3.55,-0.35 2.35,0.65 3.5,2.6 0.45,0.85 0.6,1.65 0.6,-1.1 0.6,-2.4 0,-2.25 -1.75,-3.95 z"
             id="path4298" />
        </g>
      </g>
      <g
         transform="matrix(0.26458333,0,0,0.26458333,-44.802719,-91.400152)"
         id="g3268">
        <g
           id="use3266">
          <path
             fill="#ffffff"
             stroke="none"
             d="m 101.95,379 q -3.3,0 -5.7,1.9 -2.05,1.75 -2.25,4.1 h 16 q -0.25,-2.35 -2.4,-4.1 -2.3,-1.9 -5.65,-1.9 z"
             id="path4292" />
        </g>
      </g>
    </g>
  </g>
</svg>
