<?xml version="1.0" encoding="UTF-8" standalone="no"?>
<!-- Created with Inkscape (http://www.inkscape.org/) -->

<svg
   width="64"
   height="64"
   viewBox="0 0 16.933333 16.933333"
   version="1.1"
   id="svg3928"
   inkscape:version="1.2.2 (b0a8486541, 2022-12-01)"
   sodipodi:docname="player_left.svg"
   xmlns:inkscape="http://www.inkscape.org/namespaces/inkscape"
   xmlns:sodipodi="http://sodipodi.sourceforge.net/DTD/sodipodi-0.dtd"
   xmlns="http://www.w3.org/2000/svg"
   xmlns:svg="http://www.w3.org/2000/svg">
  <sodipodi:namedview
     id="namedview3930"
     pagecolor="#ffffff"
     bordercolor="#666666"
     borderopacity="1.0"
     inkscape:showpageshadow="2"
     inkscape:pageopacity="0.0"
     inkscape:pagecheckerboard="0"
     inkscape:deskcolor="#d1d1d1"
     inkscape:document-units="mm"
     showgrid="false"
     inkscape:zoom="5.955465"
     inkscape:cx="10.242693"
     inkscape:cy="35.429643"
     inkscape:window-width="1880"
     inkscape:window-height="1052"
     inkscape:window-x="40"
     inkscape:window-y="0"
     inkscape:window-maximized="1"
     inkscape:current-layer="layer1" />
  <defs
     id="defs3925" />
  <g
     inkscape:label="Layer 1"
     inkscape:groupmode="layer"
     id="layer1">
    <g
       id="g5732"
       transform="translate(8.5999474,-6.0609598)">
      <g
         transform="matrix(0.26458333,0,0,0.26458333,-85.857541,-129.93593)"
         id="g3516">
        <g
           id="use3514">
          <path
             fill="#2ecc71"
             stroke="none"
             d="m 313.7,551.4 q -2.85,2.55 -3.2,7.65 11.85,0 15.05,-7.65 z"
             id="path5658" />
          <path
             fill="#e74c3c"
             stroke="none"
             d="m 310.7,563.6 q 0.05,0.2 0.1,0.4 0.7,2.95 4.1,2.95 h 24.5 q 2.5,0 3.5,-1.65 0.25,-0.4 0.4,-0.95 0.1,-0.3 0.15,-0.75 0.15,-0.65 0.2,-1.3 0.55,-7.35 -3.1,-10.9 h -15 q -3.2,7.65 -15.05,7.65 -0.1,1.5 0,3.2 v 0.05 q 0.1,0.5 0.15,0.95 0.05,0.2 0.05,0.35 z"
             id="path5660" />
        </g>
      </g>
      <g
         transform="matrix(0.26458333,0,0,0.26458333,-85.857541,-129.93593)"
         id="g3520">
        <g
           id="use3518">
          <path
             fill="#333333"
             stroke="none"
             d="m 321.95,568 q 0,0.15 0,0.2 0,0.15 0,0.25 0.1,0.4 0.45,0.8 0.5,0.45 1.35,0.95 0.55,0.2 1.1,0.4 1.4,0.4 3.25,0.4 1.8,0 3.3,-0.4 0.55,-0.2 1.05,-0.4 0.15,-0.05 0.25,-0.1 1.45,-0.75 1.55,-1.65 0,-0.1 0,-0.25 0.05,-0.05 0.05,-0.2 0,-2.1 -1.85,-3.55 -1.8,-1.5 -4.35,-1.5 -2.55,0 -4.35,1.5 -1.8,1.45 -1.8,3.55 z"
             id="path5654" />
        </g>
      </g>
      <g
         transform="matrix(0.26458333,0,0,0.26458333,-85.857541,-129.93593)"
         id="g3524">
        <g
           id="use3522">
          <path
             fill="#2ecc71"
             stroke="none"
             d="m 336.65,554.3 q -0.25,-0.3 -0.55,-0.55 -1.1,-0.9 -2.3,-1.2 -0.7,-0.2 -1.7,-0.1 -2,0.2 -3.45,1.7 -1.45,2 -1.35,5.95 0.05,0.3 0.05,0.65 0.15,1.5 1.75,1.2 1.6,-0.3 3.75,-0.2 2.2,0.1 3.3,0.55 1,0.35 1.65,-3.05 0.3,-3 -1.15,-4.95 z"
             id="path5650" />
        </g>
      </g>
      <g
         transform="matrix(0.26458333,0,0,0.26458333,-85.857541,-129.93593)"
         id="g3528">
        <g
           id="use3526">
          <path
             fill="#ffe0b1"
             stroke="none"
             d="m 327.65,562.15 q 0.95,1.7 2.9,2.75 1.95,1.2 3.8,1.15 1.75,0.05 2.45,-1.1 0.1,-0.05 0.15,-0.2 0.15,-0.3 0.3,-0.5 0.85,-1.75 0.35,-3.6 -0.4,-1.35 -1.2,-2.3 -0.45,-0.6 -1.35,-1.15 -1.95,-1.15 -4.35,-0.5 -1.8,0.45 -2.85,2.1 -0.15,0.25 -0.4,0.5 0.05,0.05 0,0.15 -0.05,0 -0.05,0.1 -0.6,1.05 0.25,2.6 z"
             id="path5646" />
        </g>
      </g>
      <g
         transform="matrix(0.26458333,0,0,0.26458333,-85.857541,-129.93593)"
         id="g3532">
        <g
           id="use3530">
          <path
             fill="#694c39"
             stroke="none"
             d="M 340.25,529.8 H 329.6 q -1.7,18.7 14.7,20.8 0,-0.05 0,-0.1 0.6,-3.65 0.65,-7.35 0.05,-1.6 0,-3.15 -0.15,-3.2 -0.65,-6.4 -0.2,-1.75 -1.1,-2.7 -1.05,-1.1 -2.95,-1.1 z"
             id="path5640" />
          <path
             fill="#ffe0b1"
             stroke="none"
             d="m 311.5,533.5 q -0.35,2.95 -0.55,5.85 -0.1,1.9 -0.05,3.8 0,0.3 0,0.6 0.1,3.25 0.5,6.35 0.05,0.2 0.05,0.4 0.05,0.2 0.1,0.45 0.7,3.25 4.15,3.25 h 24.55 q 2.5,0 3.5,-1.8 0.25,-0.45 0.4,-1.1 0.1,-0.3 0.15,-0.7 -16.4,-2.1 -14.7,-20.8 h -13.9 q -2.05,0 -3.1,1.1 -0.85,0.95 -1.1,2.6 z"
             id="path5642" />
        </g>
      </g>
      <g
         transform="matrix(0.26458333,0,0,0.26458333,-85.857541,-129.93593)"
         id="g3536">
        <g
           id="use3534">
          <path
             fill="#694c39"
             stroke="none"
             d="m 323.95,543.85 q 0,-1.3 -0.6,-2.1 -0.6,-0.9 -1.4,-0.9 -0.85,0 -1.4,0.9 -0.6,0.8 -0.6,2.1 0,1.35 0.6,2.15 0.55,0.9 1.4,0.9 0.8,0 1.4,-0.9 0.6,-0.8 0.6,-2.15 z"
             id="path5636" />
        </g>
      </g>
      <g
         transform="matrix(0.26458333,0,0,0.26458333,-85.857541,-129.93593)"
         id="g3540">
        <g
           id="use3538">
          <path
             fill="#ffe0b1"
             stroke="none"
             d="m 313.05,548.6 q 0.9,-0.35 0.9,-0.8 -0.1,-1.15 -0.9,-2 -0.9,-0.9 -2.15,-0.9 -1.2,0 -2.15,0.9 -0.85,0.85 -0.85,2 0,0.45 0.85,0.8 0.95,0.3 2.15,0.3 1.25,0 2.15,-0.3 z"
             id="path5632" />
        </g>
      </g>
      <g
         transform="matrix(0.26458333,0,0,0.26458333,-85.857541,-129.93593)"
         id="g3544">
        <g
           id="use3542">
          <path
             fill="#694c39"
             stroke="none"
             d="m 318.9,548.2 q -2.1,-1.3 -4.95,-1.3 -0.3,0 -0.6,0.05 -1.15,0.1 -2,1.25 -0.9,1.25 -0.9,3 0,0.75 0.9,1.2 0.85,0.45 2,0.5 0.3,0 0.6,0 2.85,0 4.95,-0.5 2.05,-0.45 2.05,-1.2 -0.2,-1.75 -2.05,-3 z"
             id="path5628" />
        </g>
      </g>
      <g
         transform="matrix(0.26458333,0,0,0.26458333,-85.857541,-129.93593)"
         id="g3548">
        <g
           id="use3546">
          <path
             fill="#2ecc71"
             stroke="none"
             d="m 317.9,532.8 q -3.8,-0.25 -7.9,-0.3 -4,0 -8,2.5 -0.15,2.45 3.05,2.6 l 37.35,2.1 q 3.3,0.2 3.4,-2.25 -12,-3.6 -27.9,-4.65 z"
             id="path5620" />
          <path
             fill="#28b162"
             stroke="none"
             d="m 310.3,526.5 q 3.3,0.15 5.55,2.2 1.9,1.75 2.05,4.1 15.9,1.05 27.9,4.65 l 0.15,-2.15 q 0,-0.1 0,-0.2 0.95,-11.65 -15.75,-13.85 -7.05,-0.55 -14.3,0.15 -4.7,0.35 -5.5,4.3 h -0.05 z"
             id="path5622" />
          <path
             fill="#ffffff"
             stroke="none"
             d="m 315.85,528.7 q -2.25,-2.05 -5.55,-2.2 l -0.3,6 q 4.1,0.05 7.9,0.3 -0.15,-2.35 -2.05,-4.1 z"
             id="path5624" />
        </g>
      </g>
      <g
         transform="matrix(0.26458333,0,0,0.26458333,-85.857541,-129.93593)"
         id="g3552">
        <g
           id="use3550">
          <path
             fill="#ffe0b1"
             stroke="none"
             d="m 337.6,542.95 q -1.3,-1.1 -3.1,-1.1 -1.85,0 -3.2,1.1 -1.3,1.2 -1.3,3 0,1.6 1.3,2.7 1.35,1.25 3.2,1.25 1.8,0 3.1,-1.25 1.3,-1.05 1.3,-2.7 v -0.15 q 0,-1.65 -1.3,-2.85 z"
             id="path5616" />
        </g>
      </g>
    </g>
  </g>
</svg>
